<?xml version="1.0" encoding="utf-8"?>
<svg version="1.1" xmlns="http://www.w3.org/2000/svg" xmlns:xlink="http://www.w3.org/1999/xlink" x="0px" y="0px" viewBox="0 0 750 500" style="enable-background:new 0 0 750 500;" xml:space="preserve">
	<g id="OBJECTS">
		<g>
			<path style="fill:#FCF5E3;" d="M168.506,255.706H94.674c-11.88,0-22.858,6.338-28.798,16.627l-36.916,63.941
			c-5.94,10.289-5.94,22.965,0,33.253l36.916,63.941c5.94,10.288,16.918,16.626,28.798,16.626h73.833
			c11.88,0,22.858-6.338,28.798-16.626l36.916-63.941c5.94-10.289,5.94-22.965,0-33.253l-36.916-63.941
			C191.364,262.043,180.387,255.706,168.506,255.706z" />
			<g>
				<path style="fill:#C770F0;" d="M149.849,393.369c1.533,5.309,3.146,10.774,6.625,15.066c6.443,7.947,17.616,10.012,27.83,10.597
				c10.214,0.584,21.019,0.376,29.878,5.492c6.758,3.903,11.704,10.811,13.221,18.466c-3.723-4.241-9.443-8.236-14.923-9.584
				c5.599,5.541,9.76,11.785,11.04,19.557s-0.855,16.293-6.521,21.766c-7.225,6.977-18.509,7.825-28.36,5.863
				c-19.368-3.857-36.538-17.454-44.733-35.422c-6.445-14.132-7.412-30.082-7.703-45.612" />
				<g>
					<path style="fill:#C770F0;" d="M95.417,342.581c-3.073,1.116-6.031,2.682-8.729,4.651c-1.355,0.978-2.631,2.069-3.84,3.238
					c-1.221,1.185-2.313,2.395-3.185,3.649c-0.872,1.252-1.507,2.535-1.797,3.792c-0.3,1.243-0.232,2.544,0.162,3.886
					c0.808,2.711,3.071,5.419,5.668,7.812c0.649,0.608,1.332,1.198,2.026,1.791l2.169,1.857c1.445,1.269,2.888,2.603,4.206,4.115
					c1.311,1.509,2.536,3.177,3.373,5.099c0.852,1.904,1.302,4.026,1.175,6.11c-0.26,4.185-2.404,7.784-5.072,10.524
					c-2.706,2.756-5.928,4.747-9.11,6.708c2.948-2.298,5.917-4.648,8.171-7.532c2.229-2.841,3.702-6.347,3.511-9.714
					c-0.17-3.372-2.156-6.262-4.736-8.58c-1.284-1.179-2.725-2.246-4.219-3.288l-2.288-1.554c-0.795-0.539-1.597-1.089-2.386-1.677
					c-1.578-1.176-3.145-2.443-4.589-3.974c-1.429-1.532-2.804-3.284-3.733-5.455c-0.94-2.146-1.411-4.672-1.129-7.135
					c0.26-2.454,1.117-4.684,2.162-6.634c1.052-1.958,2.312-3.684,3.608-5.263c1.314-1.594,2.733-3.111,4.269-4.51
					c3.062-2.81,6.54-5.203,10.324-7.084L95.417,342.581z" />
				</g>
				<path style="fill:#2E306D;" d="M147.972,407.123c-1.766-8.017-2.694-14.913-2.694-15.451l-37.032,10.874
				c0,0-0.299,9.837-1.638,18.897C121.548,422.466,136.899,417.219,147.972,407.123z" />
				<path style="fill:#EA9C8B;" d="M94.03,294.188c-6.254,10.103-9.25,21.892-10.989,33.646c-1.991,13.458-2.444,27.144-1.349,40.704
				c0.997,12.348,3.79,25.557,13.004,33.839c7.403,6.654,17.774,8.964,27.719,9.371c4.587,0.188,9.26,0.013,13.626-1.409
				c5.152-1.677,9.603-4.998,13.678-8.568c18.862-16.527,31.683-39.803,35.57-64.578c1.633-10.406,1.699-21.275-1.713-31.24
				c-4.187-12.228-13.561-22.42-25.022-28.394c-9.791-5.103-26.771-10.266-37.401-5.147
				C110.166,277.703,100.618,283.546,94.03,294.188z" />
				<g>
					<ellipse style="fill:#FFFFFF;" cx="103.3" cy="334.347" rx="11.996" ry="13.132" />
					<ellipse style="fill:#2E306D;" cx="105.957" cy="334.347" rx="7.726" ry="10.207" />
					<g>
						<path style="fill:#2E306D;" d="M91.304,334.347c-0.416-3.292,0.549-6.855,2.746-9.579c1.078-1.377,2.487-2.505,4.07-3.319
						c1.593-0.8,3.386-1.218,5.179-1.233c1.793,0.012,3.586,0.435,5.18,1.231c1.582,0.815,2.994,1.942,4.072,3.32
						c2.199,2.723,3.163,6.289,2.744,9.58c-0.424-3.285-1.771-6.316-3.92-8.554c-2.133-2.229-5.067-3.615-8.076-3.579
						c-3.01-0.038-5.944,1.348-8.078,3.577C93.072,328.03,91.726,331.063,91.304,334.347z" />
					</g>
					<circle style="fill:#FFFFFF;" cx="99.078" cy="334.32" r="2.534" />
				</g>
				<g>
					<ellipse style="fill:#FFFFFF;" cx="144.754" cy="340.226" rx="11.996" ry="13.132" />
					<ellipse style="fill:#2E306D;" cx="147.411" cy="340.226" rx="7.726" ry="10.207" />
					<g>
						<path style="fill:#2E306D;" d="M132.758,340.226c-0.417-3.292,0.548-6.855,2.746-9.578c1.078-1.377,2.487-2.505,4.07-3.319
						c1.593-0.8,3.386-1.218,5.179-1.234c1.793,0.012,3.585,0.435,5.18,1.231c1.582,0.815,2.994,1.942,4.072,3.32
						c2.199,2.723,3.163,6.289,2.744,9.581c-0.424-3.285-1.771-6.316-3.92-8.554c-2.133-2.229-5.067-3.615-8.076-3.579
						c-3.01-0.039-5.944,1.348-8.078,3.577C134.526,333.908,133.18,336.941,132.758,340.226z" />
					</g>
					<circle style="fill:#FFFFFF;" cx="140.532" cy="340.199" r="2.534" />
				</g>
				<g>
					<path style="fill:#2E306D;" d="M86.111,322.559c1.594-2.503,3.741-4.7,6.21-6.542c1.247-0.903,2.576-1.717,3.977-2.427
					c1.413-0.677,2.892-1.248,4.423-1.698c1.531-0.442,3.093-0.89,4.706-1.172c1.611-0.271,3.265-0.206,4.843,0.208
					c1.578,0.409,3.093,1.069,4.461,1.974c1.361,0.917,2.597,2.053,3.486,3.584l-0.299,0.633c-1.709,0.302-3.169,0.418-4.568,0.533
					c-1.392,0.103-2.699,0.176-3.971,0.219c-1.273,0.048-2.498-0.032-3.76-0.224c-1.26-0.202-2.565-0.346-3.858-0.253
					c-1.292,0.084-2.594,0.276-3.884,0.574c-1.303,0.265-2.6,0.638-3.874,1.117c-2.57,0.921-5.039,2.268-7.383,3.953L86.111,322.559
					z" />
				</g>
				<g>
					<path style="fill:#2E306D;" d="M165.191,335.175c-1.555-2.618-3.451-4.906-5.645-6.753c-1.08-0.936-2.232-1.762-3.434-2.466
					c-1.18-0.731-2.413-1.343-3.676-1.824c-1.261-0.49-2.608-0.733-3.928-0.884c-1.319-0.163-2.575-0.402-3.853-0.758l-3.993-1.113
					c-1.405-0.406-2.878-0.804-4.577-1.398l-0.177-0.677c1.243-1.363,2.787-2.247,4.417-2.861c1.635-0.6,3.376-0.899,5.118-0.908
					c1.744-0.014,3.48,0.362,5.073,1.08c1.592,0.73,3.076,1.635,4.512,2.553c1.434,0.926,2.761,1.981,3.969,3.135
					c1.186,1.182,2.248,2.46,3.177,3.808c1.823,2.721,3.124,5.729,3.673,8.822L165.191,335.175z" />
				</g>
				<path style="opacity:0.2;fill:#EA9C8B;" d="M123.788,344.453c-9.128-2.35-19.397-1.416-27.104,4.01
				c-2.575,1.813-4.861,4.144-6.165,7.01c-0.752,1.653-1.093,3.78,0.102,5.148c0.973,1.112,2.619,1.316,4.095,1.246
				c6.661-0.318,12.969-4.613,19.545-3.506c3.325,0.559,6.246,2.447,9.171,4.125c3.105,1.781,6.322,3.367,9.625,4.745
				c2.569,1.072,5.253,2.03,8.036,2.072c2.783,0.042,5.712-0.973,7.375-3.205c4.229-5.676-3.248-10.408-7.189-13.19
				C135.967,349.156,130.111,346.08,123.788,344.453z" />
				<g>
					<path style="fill:#2E306D;" d="M103.385,371.293c1.764,2.044,3.513,4.046,5.534,5.63c2.011,1.579,4.3,2.712,6.737,3.03
					c1.204,0.184,2.432,0.15,3.588-0.143c1.168-0.238,2.249-0.852,3.384-1.506c2.26-1.391,4.557-2.643,6.233-4.779
					c-0.452,1.285-1.311,2.419-2.258,3.413c-0.971,0.985-2.026,1.841-3.103,2.66c-1.072,0.834-2.326,1.613-3.761,2.039
					c-1.421,0.424-2.922,0.479-4.36,0.295c-1.437-0.218-2.821-0.67-4.09-1.331c-1.263-0.679-2.414-1.525-3.4-2.512
					C105.894,376.13,104.448,373.771,103.385,371.293z" />
				</g>
				<g>
					<path style="fill:#2E306D;" d="M125.587,329.317c-0.613,4.397-1.534,8.74-2.633,13.038c-1.089,4.301-2.401,8.544-3.851,12.738
					l-0.153,0.443l-0.447,0.164c-1.984,0.727-3.967,1.566-5.954,2.412l-3.016,1.221c-1.015,0.394-2.031,0.798-3.081,1.133l0.412-1.2
					c1.206,2.05,2.54,4.038,4.001,5.931c0.731,0.947,1.495,1.87,2.31,2.751c0.812,0.883,1.669,1.731,2.598,2.514
					c-2.128-1.189-3.987-2.835-5.692-4.588c-1.695-1.773-3.222-3.7-4.598-5.739l-0.549-0.814l0.961-0.387
					c1.97-0.792,3.926-1.686,5.892-2.582c1.981-0.867,3.96-1.764,6.036-2.524l-0.6,0.606c1.477-4.147,2.867-8.324,4.254-12.509
					C122.854,337.735,124.182,333.527,125.587,329.317z" />
				</g>
				<path style="fill:#C770F0;" d="M82.829,331.872c-5.139-19.119,1.204-40.711,15.412-54.499
				c14.207-13.788,35.587-19.501,54.934-15.301c6.218,1.35,12.271,3.673,17.52,7.269c9.168,6.281,15.421,16.142,19.194,26.595
				c3.974,11.011,5.429,23.001,3.595,34.563c-1.835,11.562-7.031,22.658-15.182,31.06c-5.016-8.885-6.849-19.791-5.113-29.846
				c-8.825,3.947-19.462,2.987-28.204-1.138c-8.743-4.126-15.529-12.197-18.092-21.518c1.013,4.823,2.322,10.951,4.837,15.189
				c-7.701,0.257-15.494-2.388-21.749-6.888c-6.254-4.5-11.163-10.707-14.764-17.519C91.656,310.785,87.209,321.226,82.829,331.872z
				" />
				<g>
					<path style="fill:#EA9C8B;" d="M191.775,362.932c-1.571,5.142-4.993,9.696-9.059,12.948c-2.762,2.209-5.891,3.892-9.092,4.41
					c-3.2,0.519-6.47-0.207-8.722-2.37c-2.061-1.978-3.145-5.008-3.485-8.164c-0.784-7.286,2.29-15.333,7.335-21.076
					c3.504-3.989,8.173-7.057,12.837-7.161C190.991,341.31,194.554,353.836,191.775,362.932z" />
					<path style="fill:#EA9C8B;" d="M164.45,371.142c2.237,0.103,4.532-0.465,6.557-1.623c0.613-0.351,1.272-0.87,1.326-1.596
					c0.031-0.405-0.141-0.782-0.318-1.13c-1.047-2.059-2.433-3.909-4.08-5.444c1.648-2.84,3.321-5.714,5.567-8.054
					c2.246-2.341,5.167-4.129,8.223-4.236c3.057-0.108,6.163,1.78,6.977,4.871c0,0,3.073,9.002-7.483,17.303
					C170.087,379.987,164.45,371.142,164.45,371.142z" />
					<g>
						<path style="fill:#2E306D;" d="M188.702,353.93c-0.861-2.255-2.934-3.698-5.081-4.092c-2.161-0.406-4.371,0.299-6.238,1.466
						c-1.887,1.182-3.467,2.819-4.839,4.646c-1.365,1.838-2.579,3.835-3.79,5.873l-0.173-1.167c1.065,1.044,2.01,2.201,2.813,3.445
						c0.392,0.628,0.75,1.275,1.074,1.937c0.152,0.334,0.327,0.64,0.465,1.105c0.148,0.446,0.122,1.08-0.133,1.527
						c-0.51,0.9-1.304,1.229-1.946,1.54c-0.673,0.311-1.378,0.54-2.088,0.721c-1.423,0.358-2.904,0.429-4.315,0.21
						c1.426-0.093,2.798-0.431,4.076-0.946c0.639-0.26,1.245-0.584,1.831-0.929c0.59-0.343,1.12-0.754,1.256-1.153
						c0.059-0.194,0.052-0.32-0.03-0.546c-0.079-0.214-0.269-0.522-0.439-0.819c-0.35-0.587-0.729-1.155-1.135-1.701
						c-0.8-1.099-1.709-2.113-2.719-3.006l-0.557-0.492l0.383-0.675c1.17-2.061,2.346-4.177,3.854-6.12
						c0.751-0.972,1.565-1.904,2.483-2.759c0.923-0.844,1.943-1.589,3.049-2.202c2.182-1.209,4.909-1.859,7.398-1.065
						C186.339,349.449,188.379,351.52,188.702,353.93z" />
					</g>
				</g>
				<g>
					<path style="fill:#C770F0;" d="M181.035,341.234c-3.115,1.88-6.052,3.66-8.585,5.69c-2.538,2.022-4.628,4.288-6.032,6.948
					c-0.7,1.315-1.202,2.697-1.454,4.093c-0.137,0.701-0.191,1.397-0.183,2.108l0.042,1.08l0.16,1.093
					c0.541,2.944,2.117,5.975,3.982,9.03c1.841,3.063,3.943,6.234,5.442,9.84c0.765,1.793,1.249,3.762,1.553,5.681
					c0.229,1.945,0.27,3.891,0.05,5.802c-0.871,7.61-5.271,14.654-11.716,18.181c5.994-4.244,9.226-11.443,9.22-18.325
					c0.001-1.728-0.241-3.43-0.624-5.073c-0.467-1.633-1.028-3.177-1.871-4.659c-1.654-2.975-3.913-5.688-6.181-8.625
					c-2.247-2.918-4.606-6.175-5.912-10.313c-0.65-2.047-0.932-4.326-0.798-6.55c0.131-2.224,0.651-4.385,1.43-6.394
					c1.537-4.026,4.151-7.528,6.997-10.383c2.855-2.881,5.941-5.238,8.826-7.473L181.035,341.234z" />
				</g>
				<g>
					<path style="fill:#2E306D;" d="M105.282,280.258c0.287,6.088,1.828,12.089,4.412,17.574c2.581,5.485,6.17,10.501,10.631,14.587
					l-0.572,0.378c-1.921-5.214-3.175-10.68-3.691-16.22c-0.526-5.537-0.356-11.144,0.528-16.641l0.398-2.473l0.529,2.451
					c1.655,7.658,5.78,14.605,11.03,20.391c5.276,5.81,11.662,10.557,18.477,14.465c6.803,3.912,14.156,7.068,21.951,8.225
					c7.729,1.158,15.973,0.314,22.944-3.512c-6.876,3.98-15.172,5.087-23.019,4.043c-7.901-1.068-15.386-4.154-22.294-8.019
					c-6.895-3.914-13.375-8.68-18.763-14.561c-2.685-2.939-5.091-6.155-7.028-9.651c-1.93-3.496-3.39-7.267-4.22-11.183l0.927-0.023
					c-0.894,5.412-1.087,10.941-0.592,16.409c0.505,5.465,1.655,10.878,3.487,16.061l0.487,1.378l-1.059-1
					c-4.464-4.217-8.066-9.327-10.544-14.923C106.825,292.416,105.424,286.351,105.282,280.258z" />
				</g>
				<g>
					<path style="fill:#2E306D;" d="M126.228,266.949c2.252,6.435,5.475,12.5,9.544,17.918c4.069,5.414,8.938,10.235,14.498,14.09
					c5.514,3.92,11.699,6.868,18.173,8.857c3.237,1.001,6.558,1.741,9.92,2.215c3.359,0.507,6.764,0.708,10.173,0.685
					c-3.402,0.249-6.831,0.146-10.234-0.199c-3.401-0.379-6.774-1.04-10.076-1.964c-6.603-1.86-12.885-4.86-18.53-8.777
					c-5.598-3.982-10.554-8.873-14.542-14.454c-1.989-2.793-3.756-5.741-5.266-8.812
					C128.408,273.424,127.148,270.234,126.228,266.949z" />
				</g>
				<g>
					<path style="fill:#2E306D;" d="M140.618,266.74c2.574,3.589,5.477,6.918,8.698,9.896c3.221,2.975,6.714,5.656,10.481,7.891
					c3.726,2.303,7.718,4.162,11.846,5.638l3.126,1.029l3.183,0.853l3.224,0.71c1.087,0.169,2.175,0.35,3.264,0.541
					c-1.1-0.083-2.202-0.174-3.305-0.279l-3.286-0.493l-3.247-0.723l-3.204-0.909c-4.237-1.345-8.294-3.241-12.118-5.513
					c-3.782-2.341-7.342-5.057-10.493-8.193C145.635,274.057,142.849,270.558,140.618,266.74z" />
				</g>
				<g>
					<path style="fill:#2E306D;" d="M153.015,409.468c0.86,1.622,1.814,3.188,2.85,4.695c1.055,1.495,2.211,2.913,3.441,4.26
					c2.466,2.688,5.273,5.056,8.348,6.995c1.532,0.98,3.146,1.819,4.783,2.598c1.64,0.776,3.357,1.383,5.082,1.962
					c3.466,1.123,7.04,1.926,10.608,2.798c3.562,0.888,7.136,1.865,10.573,3.267c3.43,1.391,6.696,3.342,9.365,5.953
					c5.34,5.251,8.046,12.814,7.76,20.138c-0.07-3.669-0.804-7.311-2.222-10.664c-1.382-3.36-3.431-6.453-6.072-8.921
					c-2.662-2.435-5.794-4.342-9.174-5.664c-3.374-1.345-6.909-2.279-10.469-3.14c-3.552-0.899-7.141-1.735-10.651-2.904
					c-3.505-1.167-6.93-2.698-9.999-4.781c-3.083-2.055-5.876-4.526-8.296-7.314C156.555,415.931,154.526,412.817,153.015,409.468z" />
				</g>
				<g>
					<path style="fill:#EA9C8B;" d="M151.912,421.285c-1.588-4.41-2.908-9.476-3.94-14.162
					c-11.074,10.095-26.424,15.343-41.364,14.32c-0.149,1.01-0.313,2.008-0.489,2.984
					C121.091,428.902,137.682,427.731,151.912,421.285z" />
					<path style="fill:#C6C5FE;" d="M200.826,459.269c-5.878-5.878-35.268-20.279-43.204-27.627
					c-2.176-2.014-4.084-5.842-5.71-10.357c-14.23,6.446-30.821,7.617-45.792,3.142c-0.462,2.563-1.019,4.961-1.693,6.922
					c-3.233,9.405-28.802,23.218-39.089,29.978c-10.287,6.76-13.814,24.394-13.814,24.394h162.528
					C214.051,485.72,206.704,465.147,200.826,459.269z" />
				</g>
			</g>
		</g>
	</g>
</svg>
