<?xml version="1.0" encoding="utf-8"?>
<!-- Generator: Adobe Illustrator 27.5.0, SVG Export Plug-In . SVG Version: 6.00 Build 0)  -->
<svg version="1.1" xmlns="http://www.w3.org/2000/svg" xmlns:xlink="http://www.w3.org/1999/xlink" x="0px" y="0px"
	 viewBox="0 0 500 500" style="enable-background:new 0 0 500 500;" xml:space="preserve">

<g id="OBJECTS">
	<g>
		<g>
			<polygon style="fill:#F8E9E5;" points="400.585,373.648 427.632,361.234 424.35,389.754 			"/>
			<polygon style="fill:#FFF4D4;" points="124.543,378.831 155.051,386.366 146.013,357.43 			"/>
			<polygon style="fill:none;stroke:#FFF4D4;stroke-linecap:round;stroke-miterlimit:10;" points="72.287,316.561 32.672,336.231 
				36.253,293.716 			"/>
			<polygon style="fill:#D7F9F8;" points="192.999,279.58 273.846,329.853 191.951,371.412 			"/>
			<polygon style="fill:none;stroke:#F8E9E5;stroke-miterlimit:10;" points="347.628,172.548 409.39,160.74 388.25,217.595 			"/>
			<polygon style="fill:#FFF4D4;" points="201.988,123.481 270.679,83.538 269.285,160.176 			"/>
			<polygon style="fill:none;stroke:#FFF4D4;stroke-linecap:round;stroke-miterlimit:10;" points="386.054,260.786 467.328,281.938 
				409.242,338.409 			"/>
			<polygon style="fill:none;stroke:#F8E9E5;stroke-miterlimit:10;" points="208.791,88.242 169.456,108.465 172.441,65.904 			"/>
			<polygon style="fill:none;stroke:#D7F9F8;stroke-miterlimit:10;" points="114.503,136.745 100.978,150.269 96.583,132.35 			"/>
			<polygon style="fill:#D7F9F8;" points="431.666,164.317 464.987,182.819 433.063,201.057 			"/>
			<polygon style="fill:#F8E9E5;" points="57.301,164.317 90.622,182.819 58.698,201.057 			"/>
			<polygon style="fill:#F8E9E5;" points="123.541,100.505 131.139,108.102 121.072,110.571 			"/>
			<polygon style="fill:#D7F9F8;" points="294.809,72.092 302.407,79.69 292.34,82.159 			"/>
			<polygon style="fill:#FFF4D4;" points="403.518,108.332 417.043,121.857 421.438,103.937 			"/>
			<polygon style="fill:#F8E9E5;" points="387.185,87.184 379.587,94.782 389.654,97.25 			"/>
		</g>
		<g>
			<g>
				<g>
					<path style="fill:#F8E9E5;" d="M183.581,181.351h-30.202c-1.746,0-3.162,1.416-3.162,3.162v76.117
						c0,1.746,1.416,3.162,3.162,3.162h30.202c1.746,0,3.162-1.416,3.162-3.162v-76.117
						C186.743,182.766,185.327,181.351,183.581,181.351z"/>
					<path style="fill:#3E3538;" d="M307.693,248.258H198.094c-2.347,0-4.249,1.902-4.249,4.249v7.035
						c0,2.347,1.903,4.249,4.249,4.249h109.599c2.347,0,4.249-1.902,4.249-4.249v-7.035
						C311.942,250.16,310.039,248.258,307.693,248.258z"/>
					<g>
						<rect x="245.784" y="217.382" style="fill:#F1CFCA;" width="14.218" height="30.876"/>
						<path style="fill:#F8E9E5;" d="M306.139,229.859H199.648c-3.205,0-5.803-2.598-5.803-5.803v-64.417
							c0-3.205,2.598-5.803,5.803-5.803h106.491c3.205,0,5.803,2.598,5.803,5.803v64.417
							C311.942,227.261,309.344,229.859,306.139,229.859z"/>
						<path style="fill:#14C1C1;" d="M311.942,217.382H193.844v-59.194c0-2.404,1.949-4.352,4.353-4.352H307.59
							c2.404,0,4.352,1.949,4.352,4.352V217.382z"/>
					</g>
					<path style="fill:#F1CFCA;" d="M309.221,260.456h-84.516c-0.921,0-1.668,0.747-1.668,1.668l0,0
						c0,0.921,0.747,1.668,1.668,1.668h84.516c0.921,0,1.668-0.747,1.668-1.668l0,0
						C310.889,261.203,310.143,260.456,309.221,260.456z"/>
					<g>
						<g>
							<path style="fill:#F8E9E5;" d="M151.623,183.939v-4.526c0-1.612,1.307-2.919,2.919-2.919h27.877
								c1.612,0,2.919,1.307,2.919,2.919v4.526v4.998h1.406v-15.518c0-1.746-1.416-3.162-3.162-3.162H153.38
								c-1.746,0-3.162,1.416-3.162,3.162v15.518h1.405V183.939z"/>
						</g>
					</g>
					<g>
						<g>
							<rect x="152.543" y="185.005" style="fill:#F1CFCA;" width="5.478" height="5.478"/>
							<rect x="159.142" y="185.005" style="fill:#F1CFCA;" width="5.478" height="5.478"/>
							<rect x="165.741" y="185.005" style="fill:#F1CFCA;" width="5.478" height="5.478"/>
							<rect x="172.341" y="185.005" style="fill:#F1CFCA;" width="5.478" height="5.478"/>
							<rect x="178.94" y="185.005" style="fill:#F1CFCA;" width="5.478" height="5.478"/>
						</g>
						<g>
							<rect x="152.543" y="191.73" style="fill:#F1CFCA;" width="5.478" height="5.478"/>
							<rect x="159.142" y="191.73" style="fill:#F1CFCA;" width="5.478" height="5.478"/>
							<rect x="165.741" y="191.73" style="fill:#F1CFCA;" width="5.478" height="5.478"/>
							<rect x="172.341" y="191.73" style="fill:#F1CFCA;" width="5.478" height="5.478"/>
							<rect x="178.94" y="191.73" style="fill:#F1CFCA;" width="5.478" height="5.478"/>
						</g>
						<g>
							<rect x="152.543" y="198.455" style="fill:#F1CFCA;" width="5.478" height="5.478"/>
							<rect x="159.142" y="198.455" style="fill:#F1CFCA;" width="5.478" height="5.478"/>
							<rect x="165.741" y="198.455" style="fill:#F1CFCA;" width="5.478" height="5.478"/>
							<rect x="172.341" y="198.455" style="fill:#F1CFCA;" width="5.478" height="5.478"/>
							<rect x="178.94" y="198.455" style="fill:#F1CFCA;" width="5.478" height="5.478"/>
						</g>
						<g>
							<rect x="152.543" y="205.181" style="fill:#F1CFCA;" width="5.478" height="5.478"/>
							<rect x="159.142" y="205.181" style="fill:#F1CFCA;" width="5.478" height="5.478"/>
							<rect x="165.741" y="205.181" style="fill:#F1CFCA;" width="5.478" height="5.478"/>
							<rect x="172.341" y="205.181" style="fill:#F1CFCA;" width="5.478" height="5.478"/>
							<rect x="178.94" y="205.181" style="fill:#F1CFCA;" width="5.478" height="5.478"/>
						</g>
						<g>
							<rect x="152.543" y="211.906" style="fill:#F1CFCA;" width="5.478" height="5.478"/>
							<rect x="159.142" y="211.906" style="fill:#F1CFCA;" width="5.478" height="5.478"/>
							<rect x="165.741" y="211.906" style="fill:#F1CFCA;" width="5.478" height="5.478"/>
							<rect x="172.341" y="211.906" style="fill:#F1CFCA;" width="5.478" height="5.478"/>
							<rect x="178.94" y="211.906" style="fill:#F1CFCA;" width="5.478" height="5.478"/>
						</g>
						<g>
							<rect x="152.543" y="218.631" style="fill:#F1CFCA;" width="5.478" height="5.478"/>
							<rect x="159.142" y="218.631" style="fill:#F1CFCA;" width="5.478" height="5.478"/>
							<rect x="165.741" y="218.631" style="fill:#F1CFCA;" width="5.478" height="5.478"/>
							<rect x="172.341" y="218.631" style="fill:#F1CFCA;" width="5.478" height="5.478"/>
							<rect x="178.94" y="218.631" style="fill:#F1CFCA;" width="5.478" height="5.478"/>
						</g>
						<g>
							<rect x="152.543" y="225.357" style="fill:#F1CFCA;" width="5.478" height="5.478"/>
							<rect x="159.142" y="225.357" style="fill:#F1CFCA;" width="5.478" height="5.478"/>
							<rect x="165.741" y="225.357" style="fill:#F1CFCA;" width="5.478" height="5.478"/>
							<rect x="172.341" y="225.357" style="fill:#F1CFCA;" width="5.478" height="5.478"/>
							<rect x="178.94" y="225.357" style="fill:#F1CFCA;" width="5.478" height="5.478"/>
						</g>
						<g>
							<rect x="152.543" y="232.082" style="fill:#F1CFCA;" width="5.478" height="5.478"/>
							<rect x="159.142" y="232.082" style="fill:#F1CFCA;" width="5.478" height="5.478"/>
							<rect x="165.741" y="232.082" style="fill:#F1CFCA;" width="5.478" height="5.478"/>
							<rect x="172.341" y="232.082" style="fill:#F1CFCA;" width="5.478" height="5.478"/>
							<rect x="178.94" y="232.082" style="fill:#F1CFCA;" width="5.478" height="5.478"/>
						</g>
						<g>
							<rect x="152.543" y="238.807" style="fill:#F1CFCA;" width="5.478" height="5.478"/>
							<rect x="159.142" y="238.807" style="fill:#F1CFCA;" width="5.478" height="5.478"/>
							<rect x="165.741" y="238.807" style="fill:#F1CFCA;" width="5.478" height="5.478"/>
							<rect x="172.341" y="238.807" style="fill:#F1CFCA;" width="5.478" height="5.478"/>
							<rect x="178.94" y="238.807" style="fill:#F1CFCA;" width="5.478" height="5.478"/>
						</g>
						<g>
							<rect x="152.543" y="245.533" style="fill:#F1CFCA;" width="5.478" height="5.478"/>
							<rect x="159.142" y="245.533" style="fill:#F1CFCA;" width="5.478" height="5.478"/>
							<rect x="165.741" y="245.533" style="fill:#F1CFCA;" width="5.478" height="5.478"/>
							<rect x="172.341" y="245.533" style="fill:#F1CFCA;" width="5.478" height="5.478"/>
							<rect x="178.94" y="245.533" style="fill:#F1CFCA;" width="5.478" height="5.478"/>
						</g>
						<g>
							<rect x="152.543" y="252.258" style="fill:#F1CFCA;" width="5.478" height="5.478"/>
							<rect x="159.142" y="252.258" style="fill:#F1CFCA;" width="5.478" height="5.478"/>
							<rect x="165.741" y="252.258" style="fill:#F1CFCA;" width="5.478" height="5.478"/>
							<rect x="172.341" y="252.258" style="fill:#F1CFCA;" width="5.478" height="5.478"/>
							<rect x="178.94" y="252.258" style="fill:#F1CFCA;" width="5.478" height="5.478"/>
						</g>
					</g>
				</g>
				<g>
					<rect x="208.722" y="160.132" style="fill:#3E3538;" width="88.343" height="50.954"/>
					<rect x="208.722" y="160.132" style="fill:#282325;" width="88.343" height="4.183"/>
					
						<line style="fill:none;stroke:#40D8DB;stroke-width:0.5631;stroke-miterlimit:10;" x1="222.69" y1="167.737" x2="257.545" y2="167.737"/>
					
						<line style="fill:none;stroke:#F26051;stroke-width:0.5631;stroke-miterlimit:10;" x1="222.69" y1="171.22" x2="284.284" y2="171.22"/>
					
						<line style="fill:none;stroke:#FFFFFF;stroke-width:0.5;stroke-linecap:round;stroke-miterlimit:10;" x1="222.69" y1="174.703" x2="255.416" y2="174.703"/>
					
						<line style="fill:none;stroke:#FFFFFF;stroke-width:0.5;stroke-linecap:round;stroke-miterlimit:10;" x1="222.69" y1="178.186" x2="232.899" y2="178.186"/>
					
						<line style="fill:none;stroke:#FFFFFF;stroke-width:0.5;stroke-linecap:round;stroke-miterlimit:10;" x1="235.438" y1="178.186" x2="272.022" y2="178.186"/>
					
						<line style="fill:none;stroke:#FFFFFF;stroke-width:0.5;stroke-linecap:round;stroke-miterlimit:10;" x1="259.528" y1="167.737" x2="269.736" y2="167.737"/>
					
						<line style="fill:none;stroke:#40D8DB;stroke-width:0.5631;stroke-miterlimit:10;" x1="222.69" y1="181.668" x2="251.209" y2="181.668"/>
					
						<line style="fill:none;stroke:#FFFFFF;stroke-width:0.5;stroke-linecap:round;stroke-miterlimit:10;" x1="222.69" y1="185.151" x2="278.967" y2="185.151"/>
					
						<line style="fill:none;stroke:#F26051;stroke-width:0.5631;stroke-miterlimit:10;" x1="222.69" y1="188.634" x2="286.768" y2="188.634"/>
					
						<line style="fill:none;stroke:#40D8DB;stroke-width:0.5631;stroke-miterlimit:10;" x1="222.69" y1="192.117" x2="229.154" y2="192.117"/>
					
						<line style="fill:none;stroke:#40D8DB;stroke-width:0.5631;stroke-miterlimit:10;" x1="222.69" y1="195.599" x2="235.944" y2="195.599"/>
					
						<line style="fill:none;stroke:#FFFFFF;stroke-width:0.5;stroke-linecap:round;stroke-miterlimit:10;" x1="222.69" y1="199.082" x2="248.167" y2="199.082"/>
					
						<line style="fill:none;stroke:#F26051;stroke-width:0.5631;stroke-miterlimit:10;" x1="222.69" y1="202.565" x2="254.032" y2="202.565"/>
					
						<line style="fill:none;stroke:#FFFFFF;stroke-width:0.5;stroke-linecap:round;stroke-miterlimit:10;" x1="222.69" y1="206.048" x2="240.943" y2="206.048"/>
					
						<line style="fill:none;stroke:#FFFFFF;stroke-width:0.5;stroke-linecap:round;stroke-miterlimit:10;" x1="220.325" y1="167.737" x2="216.04" y2="167.737"/>
					
						<line style="fill:none;stroke:#FFFFFF;stroke-width:0.5;stroke-linecap:round;stroke-miterlimit:10;" x1="220.325" y1="171.22" x2="216.04" y2="171.22"/>
					
						<line style="fill:none;stroke:#FFFFFF;stroke-width:0.5;stroke-linecap:round;stroke-miterlimit:10;" x1="220.325" y1="174.703" x2="216.04" y2="174.703"/>
					
						<line style="fill:none;stroke:#FFFFFF;stroke-width:0.5;stroke-linecap:round;stroke-miterlimit:10;" x1="220.325" y1="178.186" x2="216.04" y2="178.186"/>
					
						<line style="fill:none;stroke:#FFFFFF;stroke-width:0.5;stroke-linecap:round;stroke-miterlimit:10;" x1="220.325" y1="181.668" x2="216.04" y2="181.668"/>
					
						<line style="fill:none;stroke:#FFFFFF;stroke-width:0.5;stroke-linecap:round;stroke-miterlimit:10;" x1="220.325" y1="185.151" x2="216.04" y2="185.151"/>
					
						<line style="fill:none;stroke:#FFFFFF;stroke-width:0.5;stroke-linecap:round;stroke-miterlimit:10;" x1="220.325" y1="188.634" x2="216.04" y2="188.634"/>
					
						<line style="fill:none;stroke:#FFFFFF;stroke-width:0.5;stroke-linecap:round;stroke-miterlimit:10;" x1="220.325" y1="192.117" x2="216.04" y2="192.117"/>
					
						<line style="fill:none;stroke:#FFFFFF;stroke-width:0.5;stroke-linecap:round;stroke-miterlimit:10;" x1="220.325" y1="195.599" x2="216.04" y2="195.599"/>
					
						<line style="fill:none;stroke:#FFFFFF;stroke-width:0.5;stroke-linecap:round;stroke-miterlimit:10;" x1="220.325" y1="199.082" x2="216.04" y2="199.082"/>
					
						<line style="fill:none;stroke:#FFFFFF;stroke-width:0.5;stroke-linecap:round;stroke-miterlimit:10;" x1="220.325" y1="202.565" x2="216.04" y2="202.565"/>
					
						<line style="fill:none;stroke:#FFFFFF;stroke-width:0.5;stroke-linecap:round;stroke-miterlimit:10;" x1="220.325" y1="206.048" x2="216.04" y2="206.048"/>
					
						<line style="fill:none;stroke:#FFFFFF;stroke-width:0.5;stroke-linecap:round;stroke-miterlimit:10;" x1="232.319" y1="192.117" x2="268.904" y2="192.117"/>
					
						<line style="fill:none;stroke:#FFFFFF;stroke-width:0.5;stroke-linecap:round;stroke-miterlimit:10;" x1="271.245" y1="192.117" x2="281.453" y2="192.117"/>
					
						<line style="fill:none;stroke:#FFFFFF;stroke-width:0.5;stroke-linecap:round;stroke-miterlimit:10;" x1="254.504" y1="181.668" x2="264.712" y2="181.668"/>
					
						<line style="fill:none;stroke:#FFFFFF;stroke-width:0.5;stroke-linecap:round;stroke-miterlimit:10;" x1="239.297" y1="195.599" x2="249.505" y2="195.599"/>
					
						<line style="fill:none;stroke:#F26051;stroke-width:0.5631;stroke-miterlimit:10;" x1="253.037" y1="195.599" x2="284.379" y2="195.599"/>
					
						<line style="fill:none;stroke:#40D8DB;stroke-width:0.5631;stroke-miterlimit:10;" x1="244.331" y1="206.048" x2="275.673" y2="206.048"/>
				</g>
				<g>
					<g>
						<rect x="129.455" y="263.792" style="fill:#F26051;" width="324.422" height="4.909"/>
						<g>
							<rect x="129.455" y="265.446" style="fill:#F26051;" width="3.868" height="160.153"/>
							<rect x="450.009" y="265.446" style="fill:#F26051;" width="3.868" height="160.153"/>
						</g>
					</g>
				</g>
				<path style="fill:#F1CFCA;" d="M250.366,223.445c0,1.395,1.131,2.527,2.527,2.527c1.396,0,2.527-1.131,2.527-2.527
					c0-1.396-1.131-2.527-2.527-2.527C251.498,220.918,250.366,222.049,250.366,223.445z"/>
				<g>
					<path style="fill:#F99591;" d="M287.822,260.667c0,0-8.294,1.637-10.66-0.728s4.003-4.003,10.66-7.642
						c6.657-3.639,12.994,3.639,12.994,3.639l37.776-11.419c32.268-38.603,40.793-60.486,48.729-47.012
						c9.934,16.866-25.44,64.046-43.064,66.578c-17.624,2.532-45.26-1.302-45.26-1.302
						C291.718,262.781,287.822,260.667,287.822,260.667z"/>
					<g>
						<path style="fill:#3E3538;" d="M407.456,272.539c-1.094-17.151-5.164-36.043-8.159-52.44
							c-6.151-33.669-27.083-27.613-27.083-27.613c-27.844-3.333-34.608,28.223-34.608,35.253c0,23.142,12.341,24.222,10.452,49.299
							c-0.074,0.976-0.118,1.979-0.149,2.993C355.053,281.055,379.757,283.4,407.456,272.539z"/>
						<path style="fill:#F1CFCA;" d="M347.908,280.032c-0.693,22.538,9.298,53.15,39.455,41.37
							c17.859-6.976,21.524-26.43,20.093-48.863C379.757,283.4,355.053,281.055,347.908,280.032z"/>
					</g>
					<path style="fill:#FFA69F;" d="M362.587,139.309c18.955-2.546,22.434,27.272,13.842,40.266
						c-5.682,8.594-23.44,9.814-27.466,2.215C340.131,165.121,343.699,136.772,362.587,139.309z"/>
					<path style="fill:#FFA69F;" d="M380.804,192.725l-5.959-22.552l-15.978,2.231l-0.513,21.634
						C358.354,194.037,367.255,202.531,380.804,192.725z"/>
					<g>
						<path style="fill:#FFA69F;" d="M271.579,411.855l3.734-4.281l8.957,0.98c3.234,0.473,4.706,9.387-0.887,11.468
							c-4.145,1.543-9.244,4.649-15.11,4.649c-5.935,0-11.101,0.812-14.77-0.495c-1.014-0.361-0.668-0.668-1.596-1.609
							c0.987-0.974,3.197-1.663,5.541-2.142C262.996,419.29,267.953,416.203,271.579,411.855z"/>
						<path style="fill:#14C1C1;" d="M272.847,410.336c1.973,2.278,3.481,2.91,6.566,3.777c2.65,0.745,5.118-0.192,7.336-2.808
							c2.683,5.655-0.308,14.294-0.308,14.294l-37.432,0.002C250.941,416.786,261.148,422.034,272.847,410.336z"/>
						<path style="fill:#EFBDB9;" d="M256.532,290.509l19.483,22.759c70.898,30.957,102.353,24.175,111.348-14.438
							C387.363,298.829,303.068,255.937,256.532,290.509z"/>
						<path style="fill:#F1CFCA;" d="M271.138,323.462c-6.893,12.802,3.276,84.199,3.276,84.199l11.685,1.41
							c0,0,12.601-50.44,3.246-74.567c82.239,1.98,99.22-1.674,105.407-36.633l1.711-7.362
							C396.462,290.509,286.648,278.901,271.138,323.462z"/>
						<path style="fill:#FFA69F;" d="M265.258,385.775l0.358-4.278l8.135-5.714c2.919-1.47,9.243,4.981,5.861,9.897
							c-2.507,3.643-4.897,9.115-9.699,12.484c-4.859,3.409-8.621,7.041-12.375,8.077c-1.037,0.286-0.93-0.163-2.231-0.4
							c0.249-1.364,1.662-3.197,3.306-4.936C262.501,396.791,264.787,391.417,265.258,385.775z"/>
						<path style="fill:#14C1C1;" d="M265.423,383.803c2.924,0.732,4.521,0.382,7.544-0.68c2.597-0.912,4.079-3.096,4.393-6.512
							c5.444,3.088,7.875,11.76,7.875,11.76l-30.642,21.499C251.111,401.545,262.594,400.404,265.423,383.803z"/>
						<path style="fill:#EFBDB9;" d="M281.034,304.61l-24.502-14.101c-11.775,8.531,8.795,91.951,8.795,91.951l12.033-5.848
							L281.034,304.61z"/>
						
							<line style="fill:none;stroke:#EF9B97;stroke-width:0.5;stroke-linecap:round;stroke-miterlimit:10;" x1="265.944" y1="377.968" x2="277.543" y2="373.02"/>
						
							<line style="fill:none;stroke:#EF9B97;stroke-width:0.5;stroke-linecap:round;stroke-miterlimit:10;" x1="263.703" y1="375.57" x2="272.283" y2="372.059"/>
						
							<line style="fill:none;stroke:#EF9B97;stroke-width:0.5;stroke-linecap:round;stroke-miterlimit:10;" x1="277.543" y1="405.473" x2="286.741" y2="406.334"/>
						
							<line style="fill:none;stroke:#EF9B97;stroke-width:0.5;stroke-linecap:round;stroke-miterlimit:10;" x1="273.716" y1="402.488" x2="282.812" y2="403.002"/>
						<path style="fill:none;stroke:#EF9B97;stroke-width:0.5;stroke-linecap:round;stroke-miterlimit:10;" d="M273.716,378.382
							c0,0-0.655-58.238,1.502-73.017c2.158-14.779,21.844-5.767,21.844-5.767"/>
						<path style="fill:none;stroke:#EF9B97;stroke-width:0.5;stroke-linecap:round;stroke-miterlimit:10;" d="M282.812,408.675
							c0,0,5.201-35.172,2.53-59.566s-5.024-25.178,19.298-24.393s72.404,2.783,81.414-34.994"/>
					</g>
					<g>
						<g>
							<polygon style="fill:#F26051;" points="357.404,335.071 359.797,334.643 376.059,425.599 373.589,425.599 							"/>
							<polygon style="fill:#F26051;" points="404.781,335.071 407.174,334.643 423.436,425.599 420.967,425.599 							"/>
							<polygon style="fill:#F26051;" points="369.555,335.071 367.162,334.643 350.9,425.599 353.37,425.599 							"/>
							<polygon style="fill:#F26051;" points="322.178,335.071 319.785,334.643 303.523,425.599 305.992,425.599 							"/>
							<path style="fill:#F8E9E5;" d="M362.664,311.49c0-24.487-9.196-29.734-9.196-51.015c0-21.281,13.701-27.402,13.701-27.402
								h58.594c0,0-13.701,8.413-13.701,27.402c0,21.28,9.196,26.528,9.196,51.015c0,15.742-13.701,20.247-13.701,20.247h-58.594
								C348.962,331.737,362.664,327.232,362.664,311.49z"/>
							<polygon style="fill:#3E3538;" points="407.557,331.737 407.557,336.322 319.484,336.322 319.469,331.737 							"/>
						</g>
					</g>
					<path style="fill:#FFA69F;" d="M272.704,263.542c0,0,29.889,1.582,47.513-0.95c17.624-2.532,54.018-50.959,38.049-62.28
						c-7.936-5.626-13.897,2.179-43.714,42.713l-40.029,13.672c0,0-6.337-7.278-12.994-3.639c-6.657,3.639-13.025,5.276-10.66,7.642
						c2.365,2.365,10.66,0.728,10.66,0.728S265.426,263.542,272.704,263.542z"/>
					<path style="fill:#F26051;" d="M382.339,141.003c2.804,3.157,4.099,7.366,4.02,11.587c-0.094,4.996-0.099,13.155-4.094,21.143
						c-6.391,12.781-17.37,13.125-24.341,8.714s-11.365-11.731-7.173-23.674c-6.625,6.228-4.648,9.586-5.374,14.089
						c-0.726,4.503,1.743,5.353,1.743,7.407c0,2.217-1.919,3.122-3.922,1.764c-4.846-3.286,0-8.155-4.067-15.272
						c-4.067-7.117,3.05-11.184,5.237-21.351c2.187-10.167,14.952-9.586,14.952-9.586S373.995,131.61,382.339,141.003z"/>
					<path style="fill:#F26051;" d="M365.642,146.111c0,0-5.496,3.88-7.489-3.068c-1.993-6.948-4.692-5.307-6.246-9.773
						c-2.373-6.819,4.904-5.806,4.542-11.965c-0.362-6.16,5.561-10.345,11.944-7.73c6.383,2.615,8.449-2.722,13.278,0.478
						c5.134,3.403,0.832,12.035,4.433,16.156c3.602,4.121,1.898,12.68-5.352,12.475
						C373.503,142.478,373.981,149.527,365.642,146.111z"/>
					<path style="fill:#FFCF34;" d="M352.549,239.249c-5.612,10.673-15.136,97.039-17.402,118.203
						c-0.461,4.302,2.729,8.272,7.053,8.433l0.163,0.005c-0.512,6.955-1.049,14.986-1.441,20.996
						c-0.355,5.444,3.539,10.264,8.946,10.986c5.657,0.755,12.713,0.98,17.889-1.269c10.116-4.394,3.316-10.807,18.387-11.797
						c15.071-0.99,8.552-27.327,8.552-27.327s0.083-0.061,0.23-0.179c4.126-3.295,6.163-8.549,5.446-13.78
						c-4.881-35.621-18.312-98.875-29.91-110.101C363.84,227.012,356.059,232.574,352.549,239.249z"/>
					
						<line style="fill:none;stroke:#FFFFFF;stroke-width:0.5;stroke-linecap:round;stroke-miterlimit:10;" x1="344.369" y1="360.458" x2="354.076" y2="244.285"/>
					<g>
						<path style="fill:#F2B22A;" d="M362.801,312.468l1.153,18.878l-14.897,11.652c-0.923,0.722-0.617,2.189,0.517,2.483
							l18.31,4.737l6.478,17.769c0.401,1.101,1.891,1.264,2.521,0.275l10.163-15.95l12.098-0.429
							c1.174-2.571,1.623-5.468,1.227-8.36c-0.12-0.875-0.247-1.772-0.377-2.679l-5.036-6.109l2.619-9.152
							c-0.546-3.179-1.132-6.446-1.752-9.767l-15.138,5.962l-15.685-10.567C364.031,310.554,362.73,311.298,362.801,312.468z"/>
						<path style="fill:#F2B22A;" d="M386.546,297.418l-5.949,4.653c-0.737,0.577-0.493,1.749,0.413,1.983l7.312,1.892l2.587,7.095
							c0.321,0.88,1.511,1.01,2.014,0.22l1.859-2.918c-1.264-6.475-2.648-13.079-4.122-19.573l-2.816-1.897
							c-0.776-0.523-1.816,0.071-1.759,1.006L386.546,297.418z"/>
					</g>
					
						<line style="fill:none;stroke:#FFFFFF;stroke-width:0.5;stroke-linecap:round;stroke-miterlimit:10;" x1="377.805" y1="383.687" x2="367.808" y2="244.285"/>
					
						<line style="fill:none;stroke:#FFFFFF;stroke-width:0.5;stroke-linecap:round;stroke-miterlimit:10;" x1="392.972" y1="354.515" x2="376.059" y2="248.271"/>
					<path style="fill:none;stroke:#F26051;stroke-linecap:round;stroke-linejoin:round;stroke-miterlimit:10;" d="M264.669,387.117
						c0,0-5.903,6.353-4.088,8.168C262.396,397.101,264.669,392.206,264.669,387.117z"/>
					<path style="fill:none;stroke:#F26051;stroke-linecap:round;stroke-linejoin:round;stroke-miterlimit:10;" d="M264.772,387.117
						c0,0-2.134,8.827,1.618,7.541C270.141,393.372,264.772,387.117,264.772,387.117z"/>
					<path style="fill:none;stroke:#F26051;stroke-linecap:round;stroke-linejoin:round;stroke-miterlimit:10;" d="M269.969,391.428
						c0,0-0.467-2.723-5.301-4.311"/>
					<path style="fill:none;stroke:#F26051;stroke-linecap:round;stroke-linejoin:round;stroke-miterlimit:10;" d="M271.117,411.956
						c0,0-8.533,1.747-8.167,4.288C263.316,418.784,268.068,416.03,271.117,411.956z"/>
					<path style="fill:none;stroke:#F26051;stroke-linecap:round;stroke-linejoin:round;stroke-miterlimit:10;" d="M271.2,412.214
						c0,0-6.997,5.788-3.223,7.007C271.751,420.44,271.2,412.214,271.2,412.214z"/>
					<path style="fill:none;stroke:#F26051;stroke-linecap:round;stroke-linejoin:round;stroke-miterlimit:10;" d="M272.778,418.78
						c0,0,1.257-2.46-1.661-6.627"/>
					<path style="fill:none;stroke:#C12B2B;stroke-width:0.5;stroke-linecap:round;stroke-miterlimit:10;" d="M355.348,137.687
						c0,0,1.827,1.664,2.806,5.356c0.978,3.692,5.219,5.407,11.526,1.678c6.307-3.729,6.456,1.193,12.497-1.715"/>
					<path style="fill:none;stroke:#C12B2B;stroke-width:0.5;stroke-linecap:round;stroke-miterlimit:10;" d="M369.68,122.48
						c0,0,0.531,3.281-4.739,5.27c-5.27,1.989,0.447,10.988,5.568,5.867"/>
					<path style="fill:none;stroke:#C12B2B;stroke-width:0.5;stroke-linecap:round;stroke-miterlimit:10;" d="M370.51,127.055
						c0,0,2.188-6.364,6.464-2.983c4.276,3.381,0.099,6.662-4.475,6.662c-4.574,0-5.071,2.486-5.071,2.486"/>
				</g>
				<g>
					<g>
						<g>
							<rect x="182.369" y="240.532" style="fill:#FFCF34;" width="19.299" height="23.345"/>
						</g>
						<g>
							<path style="fill:#FFCF34;" d="M200.726,258.783v-1.942c0.365-0.005,3.621-0.182,3.621-4.636s-3.256-4.63-3.627-4.636
								l0.007-1.943c1.925,0,5.566,1.375,5.566,6.579C206.292,257.408,202.651,258.783,200.726,258.783z"/>
						</g>
					</g>
				</g>
				<g>
					<g>
						<path style="fill:#40D8DB;" d="M49.674,250.009c0,0-19.138,120.803,31.442,105.768
							C131.695,340.741,49.674,250.009,49.674,250.009z"/>
						
							<line style="fill:none;stroke:#0094A1;stroke-width:0.9513;stroke-miterlimit:10;" x1="49.674" y1="250.009" x2="92.289" y2="393.364"/>
						<polyline style="fill:none;stroke:#0094A1;stroke-width:0.4756;stroke-miterlimit:10;" points="50.377,334.653 
							79.531,350.446 95.324,321.292 						"/>
						<polyline style="fill:none;stroke:#0094A1;stroke-width:0.4756;stroke-miterlimit:10;" points="46.568,310.811 
							71.814,324.487 85.492,299.24 						"/>
						<polyline style="fill:none;stroke:#0094A1;stroke-width:0.4756;stroke-miterlimit:10;" points="46.179,291.427 
							65.022,301.634 75.876,283.749 						"/>
						<polyline style="fill:none;stroke:#0094A1;stroke-width:0.4756;stroke-miterlimit:10;" points="46.892,275.913 
							59.222,281.516 66.155,270.187 						"/>
					</g>
					<g>
						<path style="fill:#14C1C1;" d="M116.135,209.143c0,0-78.128,127.917-13.801,134.517
							C166.662,350.259,116.135,209.143,116.135,209.143z"/>
						
							<line style="fill:none;stroke:#0094A1;stroke-width:0.9513;stroke-miterlimit:10;" x1="116.135" y1="209.143" x2="97.43" y2="391.464"/>
						<polyline style="fill:none;stroke:#0094A1;stroke-width:0.5829;stroke-miterlimit:10;" points="77.381,305.365 103.03,336.88 
							134.544,311.23 						"/>
						<polyline style="fill:none;stroke:#0094A1;stroke-width:0.5829;stroke-miterlimit:10;" points="84.206,276.575 
							106.417,303.865 133.71,281.654 						"/>
						<polyline style="fill:none;stroke:#0094A1;stroke-width:0.5829;stroke-miterlimit:10;" points="92.823,254.433 109.4,274.801 
							130.054,259.61 						"/>
						<polyline style="fill:none;stroke:#0094A1;stroke-width:0.5829;stroke-miterlimit:10;" points="100.879,237.19 
							112.231,249.299 125.379,239.703 						"/>
					</g>
					<g>
						<path style="fill:#40D8DB;" d="M140.316,275.544c0,0-69.884,72.156-28.793,85.925
							C152.613,375.239,140.316,275.544,140.316,275.544z"/>
						
							<line style="fill:none;stroke:#0094A1;stroke-width:0.9513;stroke-miterlimit:10;" x1="140.316" y1="275.544" x2="101.291" y2="392.005"/>
						<polyline style="fill:none;stroke:#0094A1;stroke-width:0.5;stroke-linecap:round;stroke-miterlimit:10;" points="
							100.835,332.764 112.974,357.139 137.35,345 						"/>
						<polyline style="fill:none;stroke:#0094A1;stroke-width:0.5;stroke-linecap:round;stroke-miterlimit:10;" points="
							109.529,314.942 120.041,336.05 141.151,325.538 						"/>
						<polyline style="fill:none;stroke:#0094A1;stroke-width:0.5;stroke-linecap:round;stroke-miterlimit:10;" points="
							118.417,301.731 126.263,317.485 142,310.588 						"/>
						<polyline style="fill:none;stroke:#0094A1;stroke-width:0.5;stroke-linecap:round;stroke-miterlimit:10;" points="
							126.219,291.641 131.862,301.227 141.869,296.885 						"/>
					</g>
					<g>
						<path style="fill:#F26051;" d="M118.512,385.424H76.348c0,0-0.147,1.979-0.086,5.017h42.337
							C118.659,387.403,118.512,385.424,118.512,385.424z"/>
						<path style="fill:#F26051;" d="M77.183,400.476c0.284,1.664,0.648,3.365,1.118,5.054c0.472,1.696,1.053,3.372,1.757,4.98
							c0.789,1.802,1.739,3.511,2.878,5.054c1.312,1.777,2.867,3.338,4.732,4.546v0.434h19.526v-0.434
							c1.865-1.208,3.42-2.769,4.732-4.546c1.139-1.543,2.089-3.252,2.878-5.054c0.704-1.608,1.285-3.285,1.757-4.98
							c0.47-1.689,0.834-3.39,1.118-5.054c0.294-1.723,0.503-3.405,0.645-4.98H76.538C76.679,397.071,76.889,398.752,77.183,400.476
							z"/>
						<path style="fill:#F8E9E5;" d="M76.538,395.495h41.785c0.168-1.868,0.246-3.583,0.276-5.054H76.262
							C76.291,391.912,76.369,393.628,76.538,395.495z"/>
						<rect x="87.667" y="420.545" style="fill:#3E3538;" width="19.526" height="5.054"/>
					</g>
				</g>
			</g>
			
				<line style="fill:none;stroke:#27AC99;stroke-width:0.5;stroke-linecap:round;stroke-miterlimit:10;" x1="27.553" y1="425.601" x2="472.447" y2="425.601"/>
		</g>
	</g>
</g>

</svg>
